<svg xmlns="http://www.w3.org/2000/svg" xmlns:xlink="http://www.w3.org/1999/xlink" viewBox="0 0 53.984 53.984">
<defs><radialGradient id="c" cx="642.611" cy="295.166" r="21.579" fx="642.611" fy="295.166" gradientTransform="matrix(1.50193 .01908 -.01895 1.49166 -309.576 -163.076)" gradientUnits="userSpaceOnUse">
	<stop id="inside" stop-color="#252525"/>
	<stop id="outside" stop-color="#ccc" offset="1"/>
</radialGradient></defs>
<path style="fill:url(#c)" d="M648.226 315.407q-12.618 0-19.264-7.018-6.57-7.019-6.57-19.936 0-6.422 2.016-11.424 2.016-5.078 5.525-8.512 3.51-3.51 8.363-5.302 4.853-1.792 10.528-1.792 3.285 0 5.973.523 2.688.448 4.704 1.12 2.016.597 3.36 1.27 1.344.671 1.941 1.045l-3.36 9.408q-2.389-1.27-5.6-2.166-3.136-.896-7.168-.896-2.688 0-5.301.896-2.539.896-4.555 2.912-1.941 1.942-3.136 5.078-1.194 3.136-1.194 7.616 0 3.584.746 6.72.822 3.061 2.539 5.301 1.792 2.24 4.63 3.584 2.837 1.27 6.869 1.27 2.538 0 4.554-.3 2.016-.298 3.584-.671 1.568-.448 2.763-.971 1.195-.523 2.165-.97l3.211 9.333q-2.464 1.493-6.944 2.688-4.48 1.194-10.379 1.194z" aria-label="C" transform="translate(-616.978 -261.423)"/>
</svg>

